<svg id="Capa_1" data-name="Capa 1" xmlns="http://www.w3.org/2000/svg" viewBox="0 0 1232.8 372"><defs><style>.cls-1{fill:#4672b1;}.cls-2{fill:#d6da4c;}</style></defs><title>logo 2</title><path class="cls-1" d="M353.2,286.4c0-3.3,2.3-7,7.6-7h38.1c5.2,0,7.4,3.7,7.4,7v5.8c0,3.3-2.2,7-7.4,7H360.8c-5.3,0-7.6-3.7-7.6-7Z" transform="translate(-22.5 -28)"/><path class="cls-1" d="M446.8,262.6a14.2,14.2,0,0,0-1.4,4.6c-.2,2.7-.2,5.5-.2,6.2v49c0,2.9-2.4,6-7,6H428c-4.6,0-6.7-3.1-6.7-6V214.2c0-2.9,2.1-6,6.7-6h19.1a7.3,7.3,0,0,1,6.3,4L478.1,268c.7,1.2,2.4,4.5,4.1,4.5s3.3-3.3,4-4.5l24.9-55.8a7.1,7.1,0,0,1,6.4-4h18.8c4.6,0,7,3.1,7,6V322.4c0,2.9-2.4,6-7,6H525.9c-4.4,0-6.7-3.1-6.7-6V272.3a32.3,32.3,0,0,0-.5-6,4.6,4.6,0,0,0-1.9-3.7,1.4,1.4,0,0,0-1.2.6,29.9,29.9,0,0,0-4.5,7.7c-6.7,14.5-12.7,29.1-19.6,43.6-1.9,3.7-5.8,3.7-9.6,3.7s-7.4,0-9-3.7l-19.5-42.8c-1.5-2.7-2.7-5.8-4.9-8.3Z" transform="translate(-22.5 -28)"/><path class="cls-1" d="M601,213a7.7,7.7,0,0,1,7.2-4.8h11a7.7,7.7,0,0,1,7.1,4.8l42.3,105.9a7.8,7.8,0,0,1,.7,3.5c0,4.9-4.9,6-10.4,6h-3c-4,0-8.6-.2-10.3-4.8L637.8,304a5.5,5.5,0,0,0-4.7-3.1H594.4a4.7,4.7,0,0,0-4.6,3.3l-7.9,19.4c-1.9,4.8-6.7,4.8-11.2,4.8h-4.8c-4.9,0-7.8-2.5-7.8-6a9.5,9.5,0,0,1,.8-3.5Zm19.4,66.6c3.4,0,5.3-1.7,5.3-4.2a8.9,8.9,0,0,0-.6-3.1l-6.8-16.5c-.6-1.7-2.5-6-4.6-6s-4.1,4.3-4.7,6l-6.5,16.5a7.3,7.3,0,0,0-.7,3.1c0,2.5,1.7,4.2,5.3,4.2Z" transform="translate(-22.5 -28)"/><path class="cls-1" d="M695.3,208.2a7.6,7.6,0,0,1,6.7,4l21.2,37.6c10.3-12.6,16.9-25.2,24.3-37.6a7.2,7.2,0,0,1,6.5-4h10.4c4.4,0,8.2,1.9,8.2,5.8a10.5,10.5,0,0,1-1.6,4.8l-33.5,57.9a5.4,5.4,0,0,0-.6,2.5v42.1c0,5.6-4,7.1-10.6,7.1h-5c-4.9-.2-8.9-1.5-8.9-7.1V279.2a4.9,4.9,0,0,0-.6-2.5l-33.2-57.9a9.3,9.3,0,0,1-1.5-4.8c0-3.9,3.6-5.8,8.2-5.8Z" transform="translate(-22.5 -28)"/><path class="cls-1" d="M823,213a7.7,7.7,0,0,1,7.2-4.8h10.9a7.7,7.7,0,0,1,7.2,4.8l42.3,105.9a9.5,9.5,0,0,1,.7,3.5c0,4.9-4.9,6-10.4,6h-3c-4,0-8.6-.2-10.3-4.8L859.8,304a5.5,5.5,0,0,0-4.7-3.1H816.4a4.7,4.7,0,0,0-4.6,3.3l-7.9,19.4c-1.9,4.8-6.7,4.8-11.2,4.8h-4.8c-4.9,0-7.9-2.5-7.9-6a9.5,9.5,0,0,1,.9-3.5Zm19.4,66.6c3.4,0,5.3-1.7,5.3-4.2a8.9,8.9,0,0,0-.6-3.1l-6.8-16.5c-.6-1.7-2.5-6-4.7-6s-4,4.3-4.6,6l-6.6,16.5a8.9,8.9,0,0,0-.6,3.1c0,2.5,1.7,4.2,5.3,4.2Z" transform="translate(-22.5 -28)"/><path class="cls-1" d="M971.4,208.2c4.6,0,6.7,3.1,6.7,6v87.5a3.9,3.9,0,0,0,4.3,4.1h38.9c4.6,0,6.7,3.1,6.7,6v10.6c0,2.9-2.1,6-6.7,6H960.6c-4.7,0-6.8-3.1-6.8-6V214.2c0-2.9,2.1-6,6.8-6Z" transform="translate(-22.5 -28)"/><path class="cls-1" d="M1078.1,213a7.8,7.8,0,0,1,7.2-4.8h11a7.7,7.7,0,0,1,7.2,4.8l42.3,105.9a9.5,9.5,0,0,1,.6,3.5c0,4.9-4.8,6-10.3,6h-3c-4,0-8.7-.2-10.3-4.8l-7.9-19.6a5.2,5.2,0,0,0-4.6-3.1h-38.7a4.9,4.9,0,0,0-4.7,3.3l-7.8,19.4c-1.9,4.8-6.8,4.8-11.2,4.8H1043c-4.8,0-7.8-2.5-7.8-6a7.9,7.9,0,0,1,.9-3.5Zm19.5,66.6c3.4,0,5.3-1.7,5.3-4.2a7.3,7.3,0,0,0-.7-3.1l-6.7-16.5c-.7-1.7-2.6-6-4.7-6s-4,4.3-4.6,6l-6.6,16.5a8.9,8.9,0,0,0-.6,3.1c0,2.5,1.7,4.2,5.3,4.2Z" transform="translate(-22.5 -28)"/><path class="cls-1" d="M1168.6,328.4c-5.5,0-7.6-4-7.6-7.3V215.3c0-3.1,2.1-7.1,7.6-7.1h32.6c32.3,0,49,10.4,49,35.4,0,6.8-2.7,11.8-6.9,17.6-1.5,1.8-2.4,3.3-2.4,5.1s.9,3.6,2.4,5.4c5.2,6.4,8.8,12.4,8.8,20.3,0,26.2-17.3,36.4-50.9,36.4Zm17.6-78.2c0,2.5,1.5,5.2,4.8,5.2h17.2c9.3,0,15.6-4.8,15.6-11.8,0-11.2-8-13.2-17.3-13.6a66.9,66.9,0,0,0-7.8-.3h-3.4c-6,0-9.1.9-9.1,5.6Zm4.8,25.9c-3.3,0-4.8,2.4-4.8,5.1v20.1c0,4.1,2.3,5.1,5.9,5.4h4.2c16.1,0,29.2,0,29.2-14.7,0-7.1-7.2-15.9-17.3-15.9Z" transform="translate(-22.5 -28)"/><path class="cls-2" d="M220.2,165.6a13,13,0,1,1-13-12.9,13,13,0,0,1,13,12.9" transform="translate(-22.5 -28)"/><path class="cls-2" d="M226.3,122.9a13,13,0,1,1-13-13,13,13,0,0,1,13,13" transform="translate(-22.5 -28)"/><path class="cls-2" d="M212,70a15.8,15.8,0,1,1-22.3,1.7A15.8,15.8,0,0,1,212,70" transform="translate(-22.5 -28)"/><path class="cls-2" d="M230.3,31.8a15.8,15.8,0,1,1-22.2,1.7,15.8,15.8,0,0,1,22.2-1.7" transform="translate(-22.5 -28)"/><path class="cls-2" d="M178.3,41.3a19.4,19.4,0,1,1-27.4,2.1,19.5,19.5,0,0,1,27.4-2.1" transform="translate(-22.5 -28)"/><path class="cls-1" d="M74.8,395.6H34a11.5,11.5,0,0,1-9.2-18.4L164,191.6V122.2l-40.4.2h-.1a11.5,11.5,0,0,1,0-22.9l51.9-.2h.1a11.4,11.4,0,0,1,11.4,11.4v84.8a11.4,11.4,0,0,1-2.3,6.8L56.9,372.7H74.8a11.5,11.5,0,0,1,0,22.9" transform="translate(-22.5 -28)"/><path class="cls-1" d="M385.8,395.6H345.1a11.5,11.5,0,1,1,0-22.9h17.8L235.2,202.3a11.4,11.4,0,0,1-2.3-6.8V110.7a11.3,11.3,0,0,1,3.4-8.1,11,11,0,0,1,8.1-3.3l51.9.2a11.5,11.5,0,0,1,0,22.9h-.1l-40.4-.2v69.4L395,377.2a11.5,11.5,0,0,1-9.2,18.4" transform="translate(-22.5 -28)"/><path class="cls-1" d="M260.9,398.9H153.2a17.9,17.9,0,0,1-15.6-26.8l53.9-95a17.7,17.7,0,0,1,15.6-9,18,18,0,0,1,15.6,9l53.8,95a17.9,17.9,0,0,1-15.6,26.8M207.1,280.3a5.7,5.7,0,0,0-5,2.9l-53.9,94.9a5.5,5.5,0,0,0,0,5.7,5.6,5.6,0,0,0,5,2.9H260.9a5.6,5.6,0,0,0,5-2.9,5.5,5.5,0,0,0,0-5.7L212,283.2a5.6,5.6,0,0,0-4.9-2.9" transform="translate(-22.5 -28)"/><path class="cls-1" d="M420.6,398.3v-60h15.8v45.4h28.7v14.6Z" transform="translate(-22.5 -28)"/><path class="cls-1" d="M488.3,399.6a18.2,18.2,0,0,1-9.9-2.9,20.6,20.6,0,0,1-7.2-8.2,31.3,31.3,0,0,1,0-25,20.6,20.6,0,0,1,7.2-8.2,18.2,18.2,0,0,1,9.9-2.9,15.1,15.1,0,0,1,5.6,1.1,14.3,14.3,0,0,1,4.5,2.6,21.7,21.7,0,0,1,3.2,3.6h.8v-6H517v44.6H502.4v-6h-.8a21.7,21.7,0,0,1-3.2,3.6,14.3,14.3,0,0,1-4.5,2.6A15.1,15.1,0,0,1,488.3,399.6Zm4.7-12.5a9.6,9.6,0,0,0,4.9-1.2,9.4,9.4,0,0,0,3.3-3.8,16.1,16.1,0,0,0,0-12.2,9.4,9.4,0,0,0-3.3-3.8,10.6,10.6,0,0,0-9.8,0,9.4,9.4,0,0,0-3.3,3.8,16.1,16.1,0,0,0,0,12.2,9.4,9.4,0,0,0,3.3,3.8A9.6,9.6,0,0,0,493,387.1Z" transform="translate(-22.5 -28)"/><path class="cls-1" d="M554.3,399.6a15.6,15.6,0,0,1-5.7-1.1,14.3,14.3,0,0,1-4.5-2.6,17.4,17.4,0,0,1-3.1-3.6h-.9v6H525.6v-60h14.5v21.4h.9a17.4,17.4,0,0,1,3.1-3.6,14.3,14.3,0,0,1,4.5-2.6,15.6,15.6,0,0,1,5.7-1.1,18.2,18.2,0,0,1,9.9,2.9,20.4,20.4,0,0,1,7.1,8.2,30.3,30.3,0,0,1,0,25,20.4,20.4,0,0,1-7.1,8.2A18.2,18.2,0,0,1,554.3,399.6Zm-4.8-12.5a10,10,0,0,0,5-1.2,9.4,9.4,0,0,0,3.3-3.8,16.1,16.1,0,0,0,0-12.2,9.4,9.4,0,0,0-3.3-3.8,10,10,0,0,0-5-1.2,9.9,9.9,0,0,0-4.9,1.2,9.4,9.4,0,0,0-3.3,3.8,16.1,16.1,0,0,0,0,12.2,9.4,9.4,0,0,0,3.3,3.8A9.9,9.9,0,0,0,549.5,387.1Z" transform="translate(-22.5 -28)"/><path class="cls-1" d="M603.5,399.6a25.6,25.6,0,0,1-12.6-3.2,24,24,0,0,1-9-8.6,23.4,23.4,0,0,1,0-23.6,24,24,0,0,1,9-8.6,26.6,26.6,0,0,1,25.3,0,23,23,0,0,1,8.9,8.6,22.7,22.7,0,0,1,0,23.6,23,23,0,0,1-8.9,8.6A25.8,25.8,0,0,1,603.5,399.6Zm0-12.5a9.7,9.7,0,0,0,5.1-1.3,8.9,8.9,0,0,0,3.5-3.9,14,14,0,0,0,0-11.8,8.9,8.9,0,0,0-3.5-3.9,9.7,9.7,0,0,0-5.1-1.3,9.6,9.6,0,0,0-5,1.3,8.9,8.9,0,0,0-3.5,3.9,14,14,0,0,0,0,11.8,8.9,8.9,0,0,0,3.5,3.9A9.6,9.6,0,0,0,603.5,387.1Z" transform="translate(-22.5 -28)"/><path class="cls-1" d="M634.8,398.3V353.7H649v6.4h.8a12.6,12.6,0,0,1,4.1-5.1,10.8,10.8,0,0,1,6.8-2.1h4.6V367H658a9.4,9.4,0,0,0-4.5,1.1,7.2,7.2,0,0,0-3,3,9.4,9.4,0,0,0-1.1,4.5v22.7Z" transform="translate(-22.5 -28)"/><path class="cls-1" d="M688.8,399.6a18.2,18.2,0,0,1-9.9-2.9,19.7,19.7,0,0,1-7.1-8.2,30.3,30.3,0,0,1,0-25,19.7,19.7,0,0,1,7.1-8.2,18.2,18.2,0,0,1,9.9-2.9,14.7,14.7,0,0,1,5.6,1.1,12.4,12.4,0,0,1,4.5,2.6,18,18,0,0,1,3.2,3.6h.9v-6h14.5v44.6H703v-6h-.9a18,18,0,0,1-3.2,3.6,12.4,12.4,0,0,1-4.5,2.6A14.7,14.7,0,0,1,688.8,399.6Zm4.7-12.5a10,10,0,0,0,5-1.2,9.4,9.4,0,0,0,3.3-3.8,16.1,16.1,0,0,0,0-12.2,9.4,9.4,0,0,0-3.3-3.8,10,10,0,0,0-5-1.2,9.6,9.6,0,0,0-4.9,1.2,9.4,9.4,0,0,0-3.3,3.8,16.1,16.1,0,0,0,0,12.2,9.4,9.4,0,0,0,3.3,3.8A9.6,9.6,0,0,0,693.5,387.1Z" transform="translate(-22.5 -28)"/><path class="cls-1" d="M728.7,398.3v-33h-5.6V353.7h5.6v-9.4h14.5v9.4h11.6v11.6H743.2v21.4h12.5v11.6Z" transform="translate(-22.5 -28)"/><path class="cls-1" d="M784.8,399.6a25.6,25.6,0,0,1-12.6-3.2,24,24,0,0,1-9-8.6,23.4,23.4,0,0,1,0-23.6,24,24,0,0,1,9-8.6,26.4,26.4,0,0,1,25.2,0,24,24,0,0,1,9,8.6,22.7,22.7,0,0,1,0,23.6,24,24,0,0,1-9,8.6A25.6,25.6,0,0,1,784.8,399.6Zm0-12.5a9.7,9.7,0,0,0,5.1-1.3,10.3,10.3,0,0,0,3.5-3.9,14,14,0,0,0,0-11.8,10.3,10.3,0,0,0-3.5-3.9,9.7,9.7,0,0,0-5.1-1.3,9.1,9.1,0,0,0-5,1.3,9.7,9.7,0,0,0-3.6,3.9,15.1,15.1,0,0,0,0,11.8,9.7,9.7,0,0,0,3.6,3.9A9.1,9.1,0,0,0,784.8,387.1Z" transform="translate(-22.5 -28)"/><path class="cls-1" d="M816.1,398.3V353.7h14.1v6.4h.9a12.3,12.3,0,0,1,4-5.1,10.9,10.9,0,0,1,6.9-2.1h4.5V367h-7.3a9.4,9.4,0,0,0-4.5,1.1,7.2,7.2,0,0,0-3,3,9.3,9.3,0,0,0-1,4.5v22.7Z" transform="translate(-22.5 -28)"/><path class="cls-1" d="M859.8,349a8.1,8.1,0,0,1-5.8-2.2,6.8,6.8,0,0,1,0-10.2,8.7,8.7,0,0,1,11.6,0,6.8,6.8,0,0,1,0,10.2A8.1,8.1,0,0,1,859.8,349Zm-7.3,49.3V353.7h14.6v44.6Z" transform="translate(-22.5 -28)"/><path class="cls-1" d="M898.8,399.6a25.6,25.6,0,0,1-12.6-3.2,24,24,0,0,1-9-8.6,22.7,22.7,0,0,1,0-23.6,24,24,0,0,1,9-8.6,26.4,26.4,0,0,1,25.2,0,24,24,0,0,1,9,8.6,23.4,23.4,0,0,1,0,23.6,24,24,0,0,1-9,8.6A25.6,25.6,0,0,1,898.8,399.6Zm0-12.5a9.7,9.7,0,0,0,5.1-1.3,10.3,10.3,0,0,0,3.5-3.9,14,14,0,0,0,0-11.8,10.3,10.3,0,0,0-3.5-3.9,10.7,10.7,0,0,0-10.2,0,10.3,10.3,0,0,0-3.5,3.9,14,14,0,0,0,0,11.8,10.3,10.3,0,0,0,3.5,3.9A9.7,9.7,0,0,0,898.8,387.1Z" transform="translate(-22.5 -28)"/><path class="cls-1" d="M986.2,400a35.4,35.4,0,0,1-17.3-4.2A29.7,29.7,0,0,1,957,384.4a31.4,31.4,0,0,1-4.2-16.1,31.8,31.8,0,0,1,4.2-16.2,31.1,31.1,0,0,1,11.9-11.4,36.5,36.5,0,0,1,17.3-4.1,33.1,33.1,0,0,1,15.2,3.3,29.7,29.7,0,0,1,10.4,8.7,32.6,32.6,0,0,1,5.7,11.5h-16.3a15,15,0,0,0-5.5-6.3,16.1,16.1,0,0,0-9.5-2.6,18.1,18.1,0,0,0-8.7,2.1,14.8,14.8,0,0,0-5.9,6,18.7,18.7,0,0,0-2.1,9,18.3,18.3,0,0,0,2.1,8.9,15.1,15.1,0,0,0,5.9,6.1,18.1,18.1,0,0,0,8.7,2.1q6.3,0,10.2-3a14.4,14.4,0,0,0,5.2-7.3h16.3a38.5,38.5,0,0,1-5.8,12.3,31.4,31.4,0,0,1-10.6,9.1A32.6,32.6,0,0,1,986.2,400Z" transform="translate(-22.5 -28)"/><path class="cls-1" d="M1024.8,398.3v-60h14.6v48.4h9.8v11.6Z" transform="translate(-22.5 -28)"/><path class="cls-1" d="M1054.8,398.3V353.7h14.5v44.6Zm1.7-53.6,6.4-13.3h14.6v.5l-11.2,12.8Z" transform="translate(-22.5 -28)"/><path class="cls-1" d="M1078.3,398.3V353.7h14.6v6h.9a15,15,0,0,1,13.3-7.3c5.2,0,9.2,1.6,12.2,4.8s4.5,7.7,4.5,13.7v27.4h-14.6V373a8.1,8.1,0,0,0-2.1-6,7.3,7.3,0,0,0-5.6-2.1,7.7,7.7,0,0,0-4.3,1.2,8.1,8.1,0,0,0-3.1,3.5,10.7,10.7,0,0,0-1.2,5.1v23.6Z" transform="translate(-22.5 -28)"/><path class="cls-1" d="M1139.6,349a8.1,8.1,0,0,1-5.8-2.2,6.8,6.8,0,0,1,0-10.2,8.3,8.3,0,0,1,5.8-2.2,8.6,8.6,0,0,1,5.9,2.2,6.8,6.8,0,0,1,2.3,5.1,6.5,6.5,0,0,1-2.4,5.1A8.1,8.1,0,0,1,1139.6,349Zm-7.3,49.3V353.7h14.6v44.6Z" transform="translate(-22.5 -28)"/><path class="cls-1" d="M1177.8,399.6a23.8,23.8,0,0,1-20.8-11.9,23,23,0,0,1,0-23.4,23.8,23.8,0,0,1,20.8-11.9,25.7,25.7,0,0,1,11.8,2.6,21.6,21.6,0,0,1,7.8,6.8,25.4,25.4,0,0,1,3.9,9.1h-15a10.4,10.4,0,0,0-3.2-4.3,7.9,7.9,0,0,0-5.3-1.7,8.1,8.1,0,0,0-4.5,1.3,9.1,9.1,0,0,0-3.3,3.9,15.1,15.1,0,0,0,0,11.8,9.1,9.1,0,0,0,3.3,3.9,8.1,8.1,0,0,0,4.5,1.3,8.4,8.4,0,0,0,5.5-1.7,9.1,9.1,0,0,0,3-4.3h15a25.4,25.4,0,0,1-3.9,9.1,21.6,21.6,0,0,1-7.8,6.8A25.7,25.7,0,0,1,1177.8,399.6Z" transform="translate(-22.5 -28)"/><path class="cls-1" d="M1230.5,399.6a25.8,25.8,0,0,1-12.7-3.2,23,23,0,0,1-8.9-8.6,22.7,22.7,0,0,1,0-23.6,23,23,0,0,1,8.9-8.6,26.6,26.6,0,0,1,25.3,0,24,24,0,0,1,9,8.6,23.4,23.4,0,0,1,0,23.6,24,24,0,0,1-9,8.6A25.6,25.6,0,0,1,1230.5,399.6Zm0-12.5a9.3,9.3,0,0,0,5-1.3,8.9,8.9,0,0,0,3.5-3.9,14,14,0,0,0,0-11.8,8.9,8.9,0,0,0-3.5-3.9,9.3,9.3,0,0,0-5-1.3,9.7,9.7,0,0,0-5.1,1.3,9.5,9.5,0,0,0-3.5,3.9,14,14,0,0,0,0,11.8,9.5,9.5,0,0,0,3.5,3.9A9.7,9.7,0,0,0,1230.5,387.1Z" transform="translate(-22.5 -28)"/></svg>